<?xml version="1.0" encoding="utf-8"?>
<!-- Generator: Adobe Illustrator 24.0.1, SVG Export Plug-In . SVG Version: 6.00 Build 0)  -->
<svg version="1.1" id="Layer_1" xmlns="http://www.w3.org/2000/svg" xmlns:xlink="http://www.w3.org/1999/xlink" x="0px" y="0px"
	 width="190px" height="27.8px" viewBox="0 0 190 27.8" style="enable-background:new 0 0 190 27.8;" xml:space="preserve">
<style type="text/css">
	.st0{fill:#F46783;}
	.st1{fill:none;stroke:#F46783;stroke-miterlimit:10;}
</style>
<g>
	<g>
		<path class="st0" d="M5.7,5.8c0,0.4-0.1,0.9-0.2,1.6c0,0.1,0,0.2,0,0.3l-0.6,3.8H2.4L0,0.3h2.9l0.6,5c0.1,0.4,0.1,0.8,0.1,1.2
			c0,0.4,0,0.7,0.1,1h0.1c0-0.4,0.1-1,0.2-1.8c0-0.1,0-0.1,0-0.2l0.8-5.2h2.1l0.8,5.3c0,0,0,0.1,0,0.2C7.7,6.4,7.8,7,7.8,7.4h0.1
			c0-0.3,0-0.7,0.1-1C7.9,6.1,8,5.7,8,5.2l0.6-5h2.9L9.2,11.5H6.7L6.1,7.7c0-0.1,0-0.2,0-0.3C5.9,6.7,5.9,6.2,5.8,5.8H5.7z"/>
		<path class="st0" d="M12.1,11.5V0.3h3v11.3H12.1z"/>
		<path class="st0" d="M16.7,11.5V0.3h2.9v4.8l1.8-4.8h3.3l-2.4,5.5l2.8,5.7h-3.5l-2-4.7v4.7H16.7z"/>
		<path class="st0" d="M25.4,11.5V0.3h3v11.3H25.4z"/>
		<path class="st0" d="M41.2,11.5l-0.4-4.5c0-0.3,0-0.7-0.1-1c0-0.3,0-0.7-0.1-1c0,0.3-0.1,0.7-0.1,1c-0.1,0.4-0.1,0.7-0.2,1.2
			l-0.9,4.3h-1.7l-0.9-4.3c-0.1-0.4-0.2-0.8-0.2-1.2c-0.1-0.4-0.1-0.7-0.1-1c0,0.3,0,0.7-0.1,1c0,0.3,0,0.7-0.1,1l-0.4,4.5h-2.9
			l1.4-11.3h3L38,3.1c0,0.1,0,0.2,0.1,0.4c0.2,1.2,0.4,2.1,0.4,2.9h0c0-0.5,0.1-1,0.2-1.5C38.9,4.3,39,3.7,39.2,3l0.6-2.7h3L44,11.5
			H41.2z"/>
		<path class="st0" d="M45,6.4V0.3h2.9v6.1c0,0.7,0.1,1.2,0.2,1.5c0.1,0.3,0.3,0.4,0.6,0.4c0.3,0,0.5-0.1,0.6-0.4
			c0.1-0.3,0.2-0.8,0.2-1.5V0.3h2.9v6.1c0,0.8,0,1.5-0.1,2c-0.1,0.5-0.2,1-0.4,1.3c-0.3,0.7-0.8,1.2-1.3,1.6
			c-0.6,0.4-1.2,0.6-1.9,0.6c-0.7,0-1.4-0.2-1.9-0.6c-0.6-0.4-1-0.9-1.3-1.6c-0.2-0.3-0.3-0.8-0.4-1.3C45,7.8,45,7.2,45,6.4z"/>
		<path class="st0" d="M53.4,10.5l0.9-3.2c0.4,0.4,0.8,0.7,1.1,0.9c0.3,0.2,0.6,0.3,0.9,0.3c0.2,0,0.4-0.1,0.5-0.2
			C56.9,8.3,57,8.2,57,8c0-0.3-0.3-0.6-0.9-0.7c-0.2-0.1-0.3-0.1-0.4-0.1c-0.6-0.2-1.1-0.6-1.4-1.1c-0.3-0.5-0.5-1.2-0.5-2
			c0-1.2,0.3-2.2,0.9-3C55.4,0.4,56.2,0,57.2,0c0.5,0,0.9,0.1,1.4,0.3C59,0.4,59.5,0.7,59.9,1L59.1,4c-0.3-0.3-0.6-0.5-0.8-0.7
			c-0.3-0.2-0.6-0.2-0.8-0.2c-0.2,0-0.4,0-0.5,0.1c-0.1,0.1-0.2,0.2-0.2,0.4c0,0.3,0.4,0.6,1.2,0.8c0.1,0,0.2,0.1,0.3,0.1
			c0.6,0.2,1,0.5,1.3,1.1c0.3,0.5,0.5,1.2,0.5,2c0,1.2-0.3,2.3-1,3.1c-0.6,0.8-1.5,1.2-2.5,1.2c-0.5,0-1.1-0.1-1.6-0.3
			C54.5,11.3,53.9,11,53.4,10.5z"/>
		<path class="st0" d="M61,11.5V0.3h5.4v3.1h-2.6v1.1h2.3v2.9h-2.3v1.2h2.6v3.1H61z"/>
		<path class="st0" d="M67.6,6.4V0.3h2.9v6.1c0,0.7,0.1,1.2,0.2,1.5c0.1,0.3,0.3,0.4,0.6,0.4c0.3,0,0.5-0.1,0.6-0.4
			c0.1-0.3,0.2-0.8,0.2-1.5V0.3H75v6.1c0,0.8,0,1.5-0.1,2c-0.1,0.5-0.2,1-0.4,1.3c-0.3,0.7-0.8,1.2-1.3,1.6
			c-0.6,0.4-1.2,0.6-1.9,0.6c-0.7,0-1.4-0.2-1.9-0.6c-0.6-0.4-1-0.9-1.3-1.6c-0.2-0.3-0.3-0.8-0.4-1.3C67.6,7.8,67.6,7.2,67.6,6.4z"
			/>
		<path class="st0" d="M80.4,11.5V0.3h2.4c0.7,0,1.4,0.1,1.9,0.2c0.5,0.1,1,0.3,1.3,0.5c0.7,0.5,1.2,1.2,1.6,2
			c0.4,0.8,0.6,1.8,0.6,2.9c0,1.1-0.2,2-0.6,2.9c-0.4,0.8-0.9,1.5-1.6,2c-0.3,0.2-0.8,0.4-1.3,0.5c-0.5,0.1-1.2,0.2-2.1,0.2H80.4z
			 M83.3,8.1c0.7,0,1.1-0.2,1.4-0.5c0.3-0.4,0.5-0.9,0.5-1.6c0-0.7-0.1-1.3-0.4-1.6c-0.3-0.4-0.7-0.5-1.3-0.5h-0.1V8.1z"/>
		<path class="st0" d="M97.8,5.9c0,0.8-0.1,1.6-0.3,2.3c-0.2,0.7-0.5,1.3-0.9,1.9c-0.4,0.5-0.9,1-1.4,1.3c-0.5,0.3-1.1,0.4-1.7,0.4
			c-0.6,0-1.2-0.1-1.7-0.4c-0.5-0.3-1-0.7-1.4-1.3c-0.4-0.5-0.7-1.2-0.9-1.9c-0.2-0.7-0.3-1.5-0.3-2.3c0-0.8,0.1-1.6,0.3-2.3
			c0.2-0.7,0.5-1.3,0.9-1.9c0.4-0.6,0.9-1,1.4-1.3C92.3,0.1,92.8,0,93.4,0c0.6,0,1.2,0.1,1.7,0.4c0.5,0.3,1,0.7,1.4,1.3
			c0.4,0.5,0.7,1.2,0.9,1.9C97.7,4.3,97.8,5.1,97.8,5.9z M93.4,8c0.4,0,0.7-0.2,1-0.6c0.2-0.4,0.4-0.9,0.4-1.5
			c0-0.6-0.1-1.2-0.4-1.6c-0.2-0.4-0.6-0.6-1-0.6c-0.4,0-0.7,0.2-1,0.6c-0.3,0.4-0.4,0.9-0.4,1.6c0,0.6,0.1,1.2,0.4,1.5
			C92.7,7.8,93,8,93.4,8z"/>
	</g>
	<g>
		<path class="st0" d="M33.1,27.5V16.1h3.2v11.4H33.1z"/>
		<path class="st0" d="M38,27.5V16.1h3.8c1.3,0,2.3,0.3,2.9,1c0.6,0.7,0.9,1.7,0.9,3.2c0,1.3-0.3,2.3-0.8,2.9
			c-0.6,0.6-1.4,0.9-2.6,0.9h-1v3.4H38z M41.1,19.3v1.9h0.5c0.3,0,0.5-0.1,0.7-0.2c0.2-0.2,0.2-0.4,0.2-0.7c0-0.3-0.1-0.5-0.2-0.7
			c-0.2-0.2-0.4-0.3-0.7-0.3H41.1z"/>
		<path class="st0" d="M46.7,27.5V16.1h3.2v11.4H46.7z"/>
		<path class="st0" d="M51.6,27.5V16.1h4c1.2,0,2,0.3,2.6,1c0.6,0.7,0.9,1.6,0.9,2.9c0,0.8-0.2,1.5-0.5,2c-0.3,0.5-0.7,0.8-1.2,0.9
			l2.3,4.6h-3.5l-1.5-3.8v3.8H51.6z M54.7,19v2.2h0.5c0.3,0,0.5-0.1,0.7-0.3c0.2-0.2,0.2-0.5,0.2-0.8c0-0.4-0.1-0.6-0.2-0.8
			c-0.2-0.2-0.4-0.3-0.7-0.3H54.7z"/>
		<path class="st0" d="M59.2,27.5l3.1-11.4h3.5l3.1,11.4h-3.4l-0.3-1.4h-2.4l-0.3,1.4H59.2z M63.4,23.4h1.3l-0.3-1.3
			c-0.1-0.7-0.2-1.2-0.3-1.5c0-0.4-0.1-0.7-0.1-1H64c0,0.3,0,0.6-0.1,1c0,0.4-0.1,0.9-0.3,1.5L63.4,23.4z"/>
		<path class="st0" d="M69.4,27.5V16.1h3.1l2.7,6c0-0.3-0.1-0.6-0.1-0.9c0-0.3,0-0.7,0-1.3v-3.8h3v11.4h-3.1l-2.7-5.9
			c0,0.3,0.1,0.5,0.1,0.8c0,0.3,0,0.6,0,1v4.1H69.4z"/>
		<path class="st0" d="M85.4,23.4H84v-2.7h4.8c0,0.2,0,0.4,0,0.5c0,0.1,0,0.2,0,0.3c0,0.7,0,1.3-0.1,1.8c-0.1,0.5-0.2,1-0.4,1.4
			c-0.4,1-1,1.7-1.7,2.2c-0.7,0.5-1.5,0.8-2.4,0.8c-0.7,0-1.3-0.1-1.8-0.4c-0.6-0.3-1.1-0.7-1.5-1.3c-0.4-0.6-0.8-1.2-1-1.9
			c-0.2-0.7-0.3-1.5-0.3-2.4c0-0.9,0.1-1.6,0.3-2.4c0.2-0.7,0.6-1.4,1-1.9c0.4-0.6,0.9-1,1.5-1.3c0.6-0.3,1.2-0.4,1.9-0.4
			c0.9,0,1.7,0.3,2.4,0.8c0.7,0.5,1.3,1.3,1.7,2.2l-2.8,1.4c-0.1-0.3-0.3-0.6-0.5-0.7c-0.2-0.2-0.4-0.2-0.7-0.2
			c-0.5,0-0.8,0.2-1.1,0.7c-0.3,0.5-0.4,1.1-0.4,1.9c0,0.8,0.1,1.4,0.4,1.9c0.3,0.4,0.7,0.7,1.2,0.7c0.3,0,0.6-0.1,0.7-0.2
			C85.2,24,85.3,23.7,85.4,23.4z"/>
		<path class="st0" d="M88.9,27.5L92,16.1h3.5l3.1,11.4h-3.4l-0.3-1.4h-2.4l-0.3,1.4H88.9z M93,23.4h1.3l-0.3-1.3
			c-0.1-0.7-0.2-1.2-0.3-1.5c0-0.4-0.1-0.7-0.1-1h-0.1c0,0.3,0,0.6-0.1,1c0,0.4-0.1,0.9-0.3,1.5L93,23.4z"/>
	</g>
</g>
<line class="st1" x1="105.4" y1="0" x2="105.4" y2="27.5"/>
<g>
	<path class="st0" d="M116,17.9l-3-9.1h0.8l2.2,7l2.3-7.4l2.4,7.3l2.1-7h0.8l-2.9,9.1l-2.4-7.5L116,17.9z"/>
	<path class="st0" d="M124.8,17.6V8.3h0.7v4.8c0.2-0.3,0.5-0.6,0.8-0.8c0.3-0.2,0.7-0.3,1.1-0.3c0.6,0,1.1,0.2,1.4,0.5
		s0.5,0.8,0.5,1.4v3.6h-0.8v-3.3c0-0.5-0.1-0.9-0.3-1.2s-0.6-0.4-1-0.4c-0.6,0-1,0.2-1.2,0.5s-0.4,0.9-0.4,1.6v2.8H124.8z"/>
	<path class="st0" d="M131.1,10.2c0-0.2,0.1-0.3,0.2-0.4c0.1-0.1,0.2-0.2,0.4-0.2s0.3,0.1,0.4,0.2c0.1,0.1,0.2,0.2,0.2,0.4
		c0,0.2-0.1,0.3-0.2,0.4c-0.1,0.1-0.2,0.2-0.4,0.2c-0.2,0-0.3-0.1-0.4-0.2C131.1,10.5,131.1,10.3,131.1,10.2z M131.2,17.6v-5.3h0.8
		v5.3H131.2z"/>
	<path class="st0" d="M138.1,13.2c-0.2-0.2-0.5-0.3-0.8-0.4s-0.6-0.1-0.9-0.1c-0.7,0-1.2,0.2-1.6,0.6c-0.4,0.4-0.6,1-0.6,1.7
		c0,0.6,0.2,1.1,0.6,1.5c0.4,0.4,0.9,0.6,1.6,0.6c0.3,0,0.6,0,0.9-0.1c0.3-0.1,0.6-0.3,0.9-0.5v0.8c-0.3,0.1-0.5,0.3-0.9,0.3
		c-0.3,0.1-0.7,0.1-1,0.1c-0.8,0-1.5-0.3-2-0.8c-0.5-0.5-0.8-1.2-0.8-2.1c0-0.9,0.3-1.6,0.8-2.1c0.5-0.5,1.2-0.8,2.1-0.8
		c0.3,0,0.6,0,0.9,0.1c0.3,0.1,0.5,0.2,0.8,0.3L138.1,13.2z"/>
	<path class="st0" d="M139.6,17.6V8.3h0.7v4.8c0.2-0.3,0.5-0.6,0.8-0.8c0.3-0.2,0.7-0.3,1.1-0.3c0.6,0,1.1,0.2,1.4,0.5
		s0.5,0.8,0.5,1.4v3.6h-0.8v-3.3c0-0.5-0.1-0.9-0.3-1.2s-0.6-0.4-1-0.4c-0.6,0-1,0.2-1.2,0.5s-0.4,0.9-0.4,1.6v2.8H139.6z"/>
	<path class="st0" d="M150.2,17.6h-0.7V8.3h0.7v5c0.2-0.4,0.4-0.7,0.8-0.9c0.3-0.2,0.7-0.3,1.2-0.3c0.7,0,1.3,0.3,1.8,0.8
		s0.7,1.2,0.7,2.1c0,0.9-0.2,1.6-0.7,2.1c-0.5,0.5-1.1,0.8-1.8,0.8c-0.4,0-0.8-0.1-1.1-0.3c-0.3-0.2-0.6-0.5-0.7-0.9V17.6z
		 M153.8,15c0-0.7-0.2-1.2-0.5-1.6c-0.3-0.4-0.8-0.6-1.3-0.6s-1,0.2-1.3,0.6s-0.5,0.9-0.5,1.5c0,0.7,0.2,1.3,0.5,1.7
		c0.3,0.4,0.8,0.6,1.3,0.6c0.6,0,1-0.2,1.3-0.6S153.8,15.7,153.8,15z"/>
	<path class="st0" d="M156.9,13.3c0.3-0.5,0.5-0.8,0.8-1s0.6-0.3,0.9-0.3c0.1,0,0.2,0,0.3,0s0.2,0,0.3,0.1l-0.2,0.7
		c-0.1,0-0.2,0-0.2-0.1c-0.1,0-0.2,0-0.2,0c-0.4,0-0.8,0.2-1.1,0.6c-0.3,0.4-0.5,0.9-0.5,1.6v2.6h-0.7v-5.3h0.7V13.3z"/>
	<path class="st0" d="M163.9,17.6v-1c-0.2,0.4-0.4,0.7-0.7,0.9s-0.7,0.3-1.1,0.3c-0.8,0-1.4-0.3-1.8-0.8c-0.5-0.5-0.7-1.2-0.7-2.1
		c0-0.9,0.2-1.5,0.7-2.1s1.1-0.8,1.8-0.8c0.5,0,0.8,0.1,1.2,0.3c0.3,0.2,0.6,0.5,0.8,0.9v-1h0.7v5.3H163.9z M160.3,15
		c0,0.7,0.2,1.2,0.5,1.6c0.3,0.4,0.8,0.6,1.3,0.6c0.6,0,1-0.2,1.3-0.6c0.3-0.4,0.5-1,0.5-1.7c0-0.7-0.2-1.2-0.5-1.5
		c-0.3-0.4-0.8-0.6-1.3-0.6s-1,0.2-1.3,0.6C160.5,13.7,160.3,14.3,160.3,15z"/>
	<path class="st0" d="M166.6,17.6v-5.3h0.7v0.8c0.2-0.3,0.5-0.6,0.8-0.8c0.3-0.2,0.7-0.3,1.1-0.3c0.6,0,1.1,0.2,1.4,0.5
		s0.5,0.8,0.5,1.4v3.6h-0.8v-3.3c0-0.5-0.1-0.9-0.3-1.2s-0.6-0.4-1-0.4c-0.6,0-1,0.2-1.2,0.5s-0.4,0.9-0.4,1.6v2.8H166.6z"/>
	<path class="st0" d="M176.9,17.6v-1c-0.2,0.4-0.4,0.7-0.7,0.9c-0.3,0.2-0.7,0.3-1.1,0.3c-0.8,0-1.4-0.3-1.8-0.8
		c-0.5-0.5-0.7-1.2-0.7-2.1c0-0.9,0.2-1.5,0.7-2.1s1.1-0.8,1.8-0.8c0.5,0,0.8,0.1,1.2,0.3c0.3,0.2,0.6,0.5,0.8,0.9v-5h0.8v9.3H176.9
		z M173.3,15c0,0.7,0.2,1.2,0.5,1.6c0.3,0.4,0.8,0.6,1.3,0.6c0.6,0,1-0.2,1.3-0.6c0.3-0.4,0.5-1,0.5-1.7c0-0.7-0.2-1.2-0.5-1.5
		c-0.3-0.4-0.8-0.6-1.3-0.6s-1,0.2-1.3,0.6C173.5,13.7,173.3,14.3,173.3,15z"/>
	<path class="st0" d="M180.4,11h-0.7v-0.2c0-0.7,0.2-1.2,0.6-1.6c0.4-0.4,0.9-0.6,1.6-0.6c0.6,0,1.1,0.2,1.5,0.5
		c0.4,0.4,0.5,0.8,0.5,1.5c0,0.4-0.1,0.8-0.3,1.1c-0.2,0.3-0.6,0.6-1.2,1c-0.1,0.1-0.2,0.2-0.4,0.3c-0.8,0.5-1.2,1-1.2,1.4
		c0,0.3,0.1,0.5,0.3,0.7c0.2,0.2,0.4,0.3,0.7,0.3c0.4,0,0.6-0.1,0.8-0.3c0.2-0.2,0.3-0.4,0.3-0.8v-0.1h0.7v0.1c0,0.5-0.2,1-0.5,1.2
		c-0.3,0.3-0.8,0.4-1.4,0.4c-0.5,0-0.9-0.1-1.2-0.5c-0.3-0.3-0.5-0.7-0.5-1.2c0-0.3,0.1-0.7,0.3-0.9c0.2-0.3,0.5-0.6,1-0.9
		c0.1-0.1,0.3-0.2,0.4-0.3c0.9-0.6,1.4-1.1,1.4-1.6c0-0.4-0.1-0.7-0.3-0.9c-0.2-0.2-0.5-0.3-0.9-0.3c-0.5,0-0.8,0.1-1.1,0.4
		C180.5,10,180.4,10.4,180.4,11L180.4,11z M181,17.2c0-0.2,0.1-0.3,0.2-0.4s0.3-0.2,0.4-0.2c0.2,0,0.3,0.1,0.4,0.2s0.2,0.3,0.2,0.4
		s-0.1,0.3-0.2,0.4s-0.3,0.2-0.4,0.2c-0.2,0-0.3-0.1-0.4-0.2S181,17.4,181,17.2z"/>
</g>
</svg>
